<svg xmlns="http://www.w3.org/2000/svg" version="1.1" xmlns:xlink="http://www.w3.org/1999/xlink" width="60" height="60"><svg xmlns="http://www.w3.org/2000/svg" version="1.1" xmlns:xlink="http://www.w3.org/1999/xlink" width="60" height="60"><svg id="svg1" viewBox="0 0 60 60" sodipodi:version="0.32" _svgfile__filename="oldscale/mimetypes/kspread_ksp.svg" version="1.0" inkscape:version="1.4.3 (0d15f75042, 2025-12-25)" y="0" x="0" sodipodi:docname="primary-spreadsheet.svg" xmlns:inkscape="http://www.inkscape.org/namespaces/inkscape" xmlns:sodipodi="http://sodipodi.sourceforge.net/DTD/sodipodi-0.dtd" xmlns="http://www.w3.org/2000/svg" xmlns:svg="http://www.w3.org/2000/svg" xmlns:rdf="http://www.w3.org/1999/02/22-rdf-syntax-ns#" xmlns:cc="http://creativecommons.org/ns#" xmlns:dc="http://purl.org/dc/elements/1.1/">
  <defs id="defs1"></defs>
  <sodipodi:namedview id="base" bordercolor="#666666" inkscape:window-x="0" inkscape:window-y="0" pagecolor="#ffffff" inkscape:zoom="6.9465337" inkscape:pageshadow="2" borderopacity="1.0" inkscape:current-layer="svg1" inkscape:cx="43.187007" inkscape:cy="28.647381" inkscape:window-width="1440" inkscape:pageopacity="0.0" inkscape:window-height="883" inkscape:showpageshadow="2" inkscape:pagecheckerboard="0" inkscape:deskcolor="#d1d1d1" inkscape:window-maximized="1"></sodipodi:namedview>
  <path id="rect812" style="stroke-linejoin:round;fill-rule:evenodd;stroke:#229e6a;stroke-linecap:round;stroke-width:3.125;fill:#ffffff;stroke-opacity:1" d="m6.6826 4.6879c-1.1054 0-1.9953 0.8962-1.9953 2.0095v46.606c0 1.113 0.8899 2.009 1.9953 2.009h46.634c1.106 0 1.996-0.896 1.996-2.009v-46.606c0-1.1129-0.89-2.0091-1.996-2.0091h-46.634z"></path>
  <g id="g2095" transform="matrix(.98734 0 0 .98696 10.356 .75877)">
    <g id="g1731" transform="translate(-10)">
      <path id="rect863" style="stroke-linejoin:round;fill-rule:evenodd;stroke:#229e6a;stroke-linecap:round;stroke-width:2.5325;fill:#ffffff;stroke-opacity:1" d="m11.064 9.3989c-0.817 0-1.4751 0.6581-1.4751 1.4751v24.761c0 0.818 0.6581 1.476 1.4751 1.476h34.478c0.818 0 1.476-0.658 1.476-1.476v-24.761c0-0.817-0.658-1.4751-1.476-1.4751h-34.478z"></path>
      <path id="path865" style="stroke:#229e6a;stroke-width:1.8994;fill:none;stroke-opacity:1" d="m9.9488 23.323h37.069"></path>
      <path id="path866" style="stroke:#229e6a;stroke-width:1.8994;fill:none;stroke-opacity:1" d="m9.9488 30.41h37.069"></path>
      <path id="path867" style="stroke:#229e6a;stroke-width:1.8994;fill:none;stroke-opacity:1" d="m9.9488 16.237h37.069"></path>
      <path id="path868" style="stroke:#229e6a;stroke-width:1.8994;fill:none;stroke-opacity:1" d="m21.105 9.7588v26.812"></path>
      <path id="path869" style="stroke:#229e6a;stroke-width:1.8994;fill:none;stroke-opacity:1" d="m35.279 9.7588v26.812"></path>
    </g>
    <g id="g1745" transform="translate(-10)">
      <path id="path1732" style="stroke-linejoin:round;stroke:#ffffff;stroke-linecap:round;stroke-width:7.5976;fill:none" d="m21.745 23.952c-0.137 0-0.247 0.128-0.247 0.287v24.759c0 0.159 0.11 0.287 0.247 0.287h5.759c0.136 0 0.246-0.128 0.246-0.287v-24.759c0-0.159-0.11-0.287-0.246-0.287h-5.759z"></path>
      <path id="path1733" style="stroke-linejoin:round;stroke:#ffffff;stroke-linecap:round;stroke-width:7.5976;fill:none" d="m31.913 35.598c-0.137 0-0.246 0.128-0.246 0.287v13.389c0 0.159 0.109 0.287 0.246 0.287h5.759c0.136 0 0.246-0.128 0.246-0.287v-13.389c0-0.159-0.11-0.287-0.246-0.287h-5.759z"></path>
      <path id="path1734" style="stroke-linejoin:round;stroke:#ffffff;stroke-linecap:round;stroke-width:7.5976;fill:none" d="m42.081 29.648c-0.136 0-0.246 0.128-0.246 0.287v19.162c0 0.159 0.11 0.287 0.246 0.287h5.76c0.136 0 0.246-0.128 0.246-0.287v-19.162c0-0.159-0.11-0.287-0.246-0.287h-5.76z"></path>
      <path id="path1735" style="stroke-linejoin:round;stroke:#ffffff;stroke-linecap:round;stroke-width:8.2307;fill:none" d="m21.141 20.806v28.81h28.645"></path>
    </g>
    <path id="rect918" style="stroke-linejoin:round;fill-rule:evenodd;stroke:#000000;stroke-linecap:round;stroke-width:2.5325;fill:#7fbb55" d="m11.745 23.952c-0.137 0-0.247 0.128-0.247 0.287v24.759c0 0.159 0.11 0.287 0.247 0.287h5.759c0.136 0 0.246-0.128 0.246-0.287v-24.759c0-0.159-0.11-0.287-0.246-0.287h-5.759z"></path>
    <path id="rect919" style="stroke-linejoin:round;fill-rule:evenodd;stroke:#000000;stroke-linecap:round;stroke-width:2.5325;fill:#5e8fcb" d="m21.913 35.598c-0.137 0-0.246 0.128-0.246 0.287v13.389c0 0.159 0.109 0.287 0.246 0.287h5.759c0.136 0 0.246-0.128 0.246-0.287v-13.389c0-0.159-0.11-0.287-0.246-0.287h-5.759z"></path>
    <path id="rect920" style="stroke-linejoin:round;fill-rule:evenodd;stroke:#000000;stroke-linecap:round;stroke-width:2.5325;fill:#ffe940" d="m32.081 29.648c-0.136 0-0.246 0.128-0.246 0.287v19.162c0 0.159 0.11 0.287 0.246 0.287h5.76c0.136 0 0.246-0.128 0.246-0.287v-19.162c0-0.159-0.11-0.287-0.246-0.287h-5.76z"></path>
    <path id="path917" style="stroke-linejoin:round;stroke:#000000;stroke-linecap:round;stroke-width:3.1657;fill:none" d="m11.141 20.806v28.81h28.645"></path>
  </g>
  <metadata id="metadata1">
    <rdf:rdf>
      <cc:work>
        <dc:format>image/svg+xml</dc:format>
        <dc:type rdf:resource="http://purl.org/dc/dcmitype/StillImage"></dc:type>
        <cc:license rdf:resource="http://creativecommons.org/licenses/publicdomain/"></cc:license>
        <dc:publisher>
          <cc:agent rdf:about="http://openclipart.org/">
            <dc:title>Openclipart</dc:title>
          </cc:agent>
        </dc:publisher>
      </cc:work>
      <cc:license rdf:about="http://creativecommons.org/licenses/publicdomain/">
        <cc:permits rdf:resource="http://creativecommons.org/ns#Reproduction"></cc:permits>
        <cc:permits rdf:resource="http://creativecommons.org/ns#Distribution"></cc:permits>
        <cc:permits rdf:resource="http://creativecommons.org/ns#DerivativeWorks"></cc:permits>
      </cc:license>
    </rdf:rdf>
  </metadata>
</svg></svg><style>@media (prefers-color-scheme: light) { :root { filter: none; } }
@media (prefers-color-scheme: dark) { :root { filter: none; } }
</style></svg>